<svg width="600" height="600" viewBox="0 0 600 600" fill="none" xmlns="http://www.w3.org/2000/svg">
<g clip-path="url(#clip0_219_6)">
<path d="M301.434 130.833C257.427 130.877 215.235 148.375 184.114 179.49C152.994 210.604 135.487 252.793 135.434 296.799C135.4 328.133 144.2 358.666 160.8 385.099L164.734 391.366L147.967 452.599L210.8 436.133L216.834 439.733C242.417 454.875 271.605 462.854 301.334 462.833H301.367C345.359 462.771 387.533 445.27 418.643 414.166C449.754 383.061 467.263 340.892 467.334 296.899C467.41 275.093 463.159 253.489 454.829 233.337C446.498 213.185 434.252 194.886 418.8 179.499C403.429 164.027 385.14 151.759 364.993 143.406C344.847 135.052 323.243 130.778 301.434 130.833ZM399.034 368.099C394.867 379.766 374.934 390.366 365.367 391.799C354.879 393.608 344.114 392.934 333.934 389.833C324.276 386.842 314.784 383.337 305.5 379.333C255.434 357.733 222.767 307.366 220.234 303.999C217.767 300.666 199.9 276.933 199.9 252.399C199.9 227.833 212.767 215.766 217.334 210.766C219.01 208.871 221.06 207.343 223.354 206.276C225.648 205.209 228.138 204.627 230.667 204.566C234 204.566 237.3 204.599 240.234 204.733C243.3 204.866 247.4 203.566 251.434 213.299C255.6 223.299 265.6 247.833 266.834 250.333C268.067 252.799 268.9 255.733 267.267 259.066C265.6 262.433 264.8 264.466 262.267 267.399C259.8 270.333 257.034 273.899 254.8 276.166C252.3 278.633 249.7 281.333 252.6 286.333C255.534 291.299 265.534 307.666 280.334 320.899C299.4 337.899 315.5 343.133 320.467 345.666C325.467 348.133 328.367 347.766 331.3 344.399C334.2 341.033 343.767 329.833 347.1 324.866C350.434 319.866 353.734 320.699 358.334 322.333C362.9 324.033 387.434 336.066 392.4 338.566C397.334 341.033 400.7 342.299 401.967 344.399C403.167 346.466 403.167 356.433 399.034 368.099Z" fill="black"/>
<path d="M566.667 0H33.3333C24.4928 0 16.0143 3.51189 9.76311 9.76311C3.51189 16.0143 0 24.4928 0 33.3333V566.667C0 575.507 3.51189 583.986 9.76311 590.237C16.0143 596.488 24.4928 600 33.3333 600H566.667C575.507 600 583.986 596.488 590.237 590.237C596.488 583.986 600 575.507 600 566.667V33.3333C600 24.4928 596.488 16.0143 590.237 9.76311C583.986 3.51189 575.507 0 566.667 0ZM301.333 496.533H301.267C267.935 496.537 235.135 488.182 205.867 472.233L100 500L128.333 396.533C110.833 366.174 101.629 331.744 101.646 296.702C101.663 261.66 110.901 227.239 128.431 196.897C145.962 166.555 171.167 141.36 201.517 123.843C231.866 106.325 266.291 97.1022 301.333 97.1C327.584 97.0274 353.589 102.167 377.838 112.22C402.088 122.274 424.101 137.041 442.6 155.667C461.185 174.178 475.913 196.193 485.932 220.436C495.951 244.679 501.061 270.669 500.967 296.9C500.887 349.822 479.829 400.553 442.408 437.974C404.986 475.396 354.255 496.454 301.333 496.533Z" fill="black"/>
</g>
<defs>
<clipPath id="clip0_219_6">
<rect width="600" height="600" fill="white"/>
</clipPath>
</defs>
</svg>
