<?xml version="1.0" standalone="no"?>
<!DOCTYPE svg PUBLIC "-//W3C//DTD SVG 20010904//EN"
 "http://www.w3.org/TR/2001/REC-SVG-20010904/DTD/svg10.dtd">
<svg version="1.0" xmlns="http://www.w3.org/2000/svg"
 width="500.000000pt" height="500.000000pt" viewBox="0 0 500.000000 500.000000"
 preserveAspectRatio="xMidYMid meet">
<metadata>
Created by potrace 1.14, written by Peter Selinger 2001-2017
</metadata>
<g transform="translate(0.000000,500.000000) scale(0.100000,-0.100000)"
fill="#000000" stroke="none">
<path d="M2707 4712 c-10 -2 -14 -8 -10 -15 5 -9 3 -9 -8 0 -12 10 -21 9 -42
-2 -15 -8 -29 -10 -32 -4 -4 5 -19 2 -35 -6 -17 -9 -32 -15 -35 -15 -23 -1
-65 -14 -65 -22 0 -5 -4 -7 -9 -4 -10 7 -71 -15 -71 -26 0 -4 -9 -5 -19 -3
-11 2 -22 -3 -25 -11 -3 -8 -12 -14 -21 -14 -15 0 -25 -6 -60 -37 -7 -7 -17
-13 -21 -13 -15 0 -176 -176 -201 -220 -14 -25 -32 -49 -40 -53 -7 -4 -13 -12
-13 -17 0 -6 -18 -28 -40 -50 -22 -22 -39 -40 -37 -41 1 0 10 -2 20 -4 26 -5
31 -12 21 -32 -10 -22 -12 -36 -17 -95 -3 -25 -8 -52 -13 -60 -5 -7 -9 -20
-11 -28 -12 -83 -15 -114 -14 -170 2 -57 7 -105 11 -105 1 0 3 -11 6 -25 2
-14 14 -46 26 -73 20 -44 21 -49 6 -80 -16 -34 -15 -72 3 -93 6 -7 7 -30 3
-56 -8 -54 -11 -149 -4 -153 3 -2 6 -31 8 -66 3 -70 24 -100 65 -92 21 4 26
-4 57 -84 19 -48 38 -90 42 -91 4 -2 5 -8 2 -13 -3 -6 -1 -16 5 -22 9 -12 12
-61 2 -52 -2 3 -10 0 -18 -6 -7 -6 -13 -9 -13 -6 0 9 -159 -43 -195 -64 -19
-12 -35 -18 -35 -14 0 3 -7 0 -15 -7 -32 -29 -43 -37 -47 -33 -6 7 -68 -53
-108 -105 -19 -25 -60 -70 -91 -100 -31 -30 -54 -61 -52 -67 3 -7 0 -13 -6
-13 -6 0 -11 -6 -11 -13 0 -11 -80 -44 -130 -53 -8 -2 -42 -13 -75 -24 -33
-11 -67 -22 -76 -24 -24 -6 -143 -57 -155 -67 -6 -5 -14 -6 -17 -2 -4 3 -7 1
-7 -4 0 -6 -31 -24 -70 -39 l-69 -27 -57 -113 c-31 -63 -61 -114 -65 -114 -5
0 -8 -3 -7 -7 1 -5 -28 -59 -65 -121 -37 -62 -67 -117 -67 -122 0 -6 -4 -10
-10 -10 -5 0 -10 -9 -10 -19 0 -11 -7 -26 -15 -35 -8 -8 -15 -18 -15 -21 0 -4
-9 -19 -20 -35 -11 -15 -17 -30 -13 -34 3 -3 1 -6 -6 -6 -7 0 -9 -4 -6 -10 3
-5 2 -10 -4 -10 -5 0 -15 -16 -22 -35 -7 -19 -16 -35 -20 -35 -4 0 -11 -9 -14
-21 -4 -11 -16 -42 -28 -67 -12 -26 -20 -50 -19 -55 1 -4 -3 -7 -10 -7 -6 0
-9 -3 -5 -6 3 -3 1 -18 -5 -33 -21 -51 -4 -141 33 -171 3 -3 10 -12 15 -21 17
-30 68 -92 122 -147 28 -30 52 -55 52 -57 0 -4 82 -86 137 -135 78 -71 103
-91 183 -151 110 -81 140 -101 140 -93 0 4 8 -2 18 -12 9 -10 35 -29 57 -41
22 -11 57 -30 77 -42 21 -11 38 -17 38 -13 0 4 4 2 8 -4 17 -27 270 -134 417
-178 50 -14 104 -30 120 -35 155 -48 407 -77 645 -75 107 1 255 9 255 14 0 0
18 3 40 6 54 6 100 12 100 14 0 1 12 3 27 5 16 2 63 12 105 21 92 21 84 19
103 26 18 7 120 39 135 43 6 1 21 6 35 12 14 6 43 16 65 24 22 8 42 16 45 19
3 3 10 6 17 7 6 1 45 18 87 38 41 19 77 35 79 35 13 0 234 134 245 148 7 9 15
15 17 12 9 -11 206 143 301 235 54 52 55 56 40 130 -4 17 -9 56 -12 87 -3 31
-7 67 -10 80 -8 38 -12 61 -18 103 -3 22 -12 59 -20 83 -8 23 -15 44 -16 47 0
3 -1 7 -1 10 -3 11 -5 21 -13 55 -5 19 -13 41 -19 48 -5 7 -7 15 -5 18 3 3 -1
26 -9 52 -8 26 -16 54 -17 62 -1 8 -8 25 -14 38 -7 12 -11 22 -9 22 3 0 -9 37
-25 82 -16 46 -30 88 -32 93 -5 16 -17 45 -46 111 -29 64 -66 99 -130 124 -19
8 -60 29 -90 47 -30 18 -61 33 -67 33 -7 0 -13 4 -13 9 0 5 -10 13 -22 16 -13
4 -36 13 -53 20 -16 8 -47 20 -67 29 -61 24 -82 90 -61 196 9 46 9 116 0 160
-6 32 -46 100 -58 100 -5 0 -8 4 -7 9 4 12 -63 101 -76 101 -5 0 -7 3 -3 6 5
6 -60 69 -72 69 -3 1 -15 6 -26 12 -11 5 -38 16 -60 23 -22 7 -46 18 -54 24
-11 8 -13 8 -7 -1 5 -9 2 -11 -8 -7 -14 5 -12 31 4 44 7 6 44 63 46 70 0 3 5
16 11 30 6 14 12 28 13 32 1 4 8 29 16 54 8 26 12 49 9 52 -2 2 3 11 11 20 11
11 18 12 27 3 33 -33 68 1 66 66 -1 21 6 55 15 75 18 41 17 38 14 181 -2 53 0
97 4 97 9 0 -4 44 -16 53 -8 5 -8 9 0 15 17 11 44 97 49 156 2 28 7 76 10 106
11 101 7 310 -8 375 -3 11 -10 54 -17 95 -7 41 -21 100 -31 131 -10 30 -20 68
-21 85 -1 16 -5 34 -9 39 -4 6 -4 16 0 24 11 17 -12 81 -34 94 -21 11 -75 16
-89 9 -15 -8 -86 -10 -86 -2 0 8 -61 30 -83 30 -9 0 -17 5 -17 11 0 5 -5 7
-11 3 -6 -3 -15 0 -20 7 -5 8 -9 9 -9 3 0 -7 -12 -10 -32 -8 -74 10 -104 10
-125 2 -16 -5 -23 -4 -23 5 0 8 -3 8 -9 -2 -5 -7 -10 -9 -12 -4 -2 5 -12 7
-22 5z"/>
</g>
</svg>
